<svg width="12" height="18" viewBox="0 0 12 18" fill="none" xmlns="http://www.w3.org/2000/svg">
<path d="M0.77002 8.70312V7.11719C0.77002 6.95573 0.827311 6.81771 0.941895 6.70312C1.05648 6.58854 1.1945 6.53125 1.35596 6.53125C1.52262 6.53125 1.66325 6.58854 1.77783 6.70312C1.89242 6.81771 1.94971 6.95573 1.94971 7.11719V8.65625C1.94971 9.54167 2.132 10.3177 2.49658 10.9844C2.86117 11.651 3.37419 12.1693 4.03564 12.5391C4.6971 12.9036 5.47314 13.0859 6.36377 13.0859C7.25439 13.0859 8.02783 12.9036 8.68408 12.5391C9.34554 12.1693 9.85856 11.651 10.2231 10.9844C10.5877 10.3177 10.77 9.54167 10.77 8.65625V7.11719C10.77 6.95573 10.8273 6.81771 10.9419 6.70312C11.0565 6.58854 11.1971 6.53125 11.3638 6.53125C11.5252 6.53125 11.6632 6.58854 11.7778 6.70312C11.8924 6.81771 11.9497 6.95573 11.9497 7.11719V8.70312C11.9497 9.72396 11.7388 10.6302 11.3169 11.4219C10.9002 12.2135 10.3169 12.849 9.56689 13.3281C8.81689 13.8021 7.9445 14.0807 6.94971 14.1641V15.9844H9.84814C10.0148 15.9844 10.1554 16.0417 10.27 16.1562C10.3846 16.2708 10.4419 16.4115 10.4419 16.5781C10.4419 16.7396 10.3846 16.8776 10.27 16.9922C10.1554 17.1068 10.0148 17.1641 9.84814 17.1641H2.87158C2.70492 17.1641 2.56429 17.1068 2.44971 16.9922C2.33512 16.8776 2.27783 16.7396 2.27783 16.5781C2.27783 16.4115 2.33512 16.2708 2.44971 16.1562C2.56429 16.0417 2.70492 15.9844 2.87158 15.9844H5.77002V14.1641C4.77523 14.0807 3.90283 13.8021 3.15283 13.3281C2.40283 12.849 1.81689 12.2135 1.39502 11.4219C0.978353 10.6302 0.77002 9.72396 0.77002 8.70312ZM6.36377 11.4062C5.84294 11.4062 5.38721 11.2865 4.99658 11.0469C4.60596 10.8073 4.30127 10.4766 4.08252 10.0547C3.86377 9.6276 3.75439 9.13542 3.75439 8.57812V3.35156C3.75439 2.79427 3.86377 2.30469 4.08252 1.88281C4.30127 1.45573 4.60596 1.1224 4.99658 0.882812C5.38721 0.643229 5.84294 0.523438 6.36377 0.523438C6.87939 0.523438 7.33252 0.643229 7.72314 0.882812C8.11898 1.1224 8.42367 1.45573 8.63721 1.88281C8.85596 2.30469 8.96533 2.79427 8.96533 3.35156V8.57812C8.96533 9.13542 8.85596 9.6276 8.63721 10.0547C8.42367 10.4766 8.11898 10.8073 7.72314 11.0469C7.33252 11.2865 6.87939 11.4062 6.36377 11.4062Z" fill="black"/>
</svg>
