<svg width="11" height="17" viewBox="0 0 11 17" fill="none" xmlns="http://www.w3.org/2000/svg">
<path d="M0.255859 8.09668V6.60986C0.255859 6.4585 0.30957 6.3291 0.416992 6.22168C0.524414 6.11426 0.653809 6.06055 0.805176 6.06055C0.961426 6.06055 1.09326 6.11426 1.20068 6.22168C1.30811 6.3291 1.36182 6.4585 1.36182 6.60986V8.05273C1.36182 8.88281 1.53271 9.61035 1.87451 10.2354C2.21631 10.8604 2.69727 11.3462 3.31738 11.6929C3.9375 12.0347 4.66504 12.2056 5.5 12.2056C6.33496 12.2056 7.06006 12.0347 7.67529 11.6929C8.29541 11.3462 8.77637 10.8604 9.11816 10.2354C9.45996 9.61035 9.63086 8.88281 9.63086 8.05273V6.60986C9.63086 6.4585 9.68457 6.3291 9.79199 6.22168C9.89941 6.11426 10.0312 6.06055 10.1875 6.06055C10.3389 6.06055 10.4683 6.11426 10.5757 6.22168C10.6831 6.3291 10.7368 6.4585 10.7368 6.60986V8.09668C10.7368 9.05371 10.5391 9.90332 10.1436 10.6455C9.75293 11.3877 9.20605 11.9834 8.50293 12.4326C7.7998 12.877 6.98193 13.1382 6.04932 13.2163V14.9229H8.7666C8.92285 14.9229 9.05469 14.9766 9.16211 15.084C9.26953 15.1914 9.32324 15.3232 9.32324 15.4795C9.32324 15.6309 9.26953 15.7603 9.16211 15.8677C9.05469 15.9751 8.92285 16.0288 8.7666 16.0288H2.22607C2.06982 16.0288 1.93799 15.9751 1.83057 15.8677C1.72314 15.7603 1.66943 15.6309 1.66943 15.4795C1.66943 15.3232 1.72314 15.1914 1.83057 15.084C1.93799 14.9766 2.06982 14.9229 2.22607 14.9229H4.94336V13.2163C4.01074 13.1382 3.19287 12.877 2.48975 12.4326C1.78662 11.9834 1.2373 11.3877 0.841797 10.6455C0.451172 9.90332 0.255859 9.05371 0.255859 8.09668ZM5.5 10.6309C5.01172 10.6309 4.58447 10.5186 4.21826 10.2939C3.85205 10.0693 3.56641 9.75928 3.36133 9.36377C3.15625 8.96338 3.05371 8.50195 3.05371 7.97949V3.07959C3.05371 2.55713 3.15625 2.09814 3.36133 1.70264C3.56641 1.30225 3.85205 0.989746 4.21826 0.765137C4.58447 0.540527 5.01172 0.428223 5.5 0.428223C5.9834 0.428223 6.4082 0.540527 6.77441 0.765137C7.14551 0.989746 7.43115 1.30225 7.63135 1.70264C7.83643 2.09814 7.93896 2.55713 7.93896 3.07959V7.97949C7.93896 8.50195 7.83643 8.96338 7.63135 9.36377C7.43115 9.75928 7.14551 10.0693 6.77441 10.2939C6.4082 10.5186 5.9834 10.6309 5.5 10.6309Z" fill="white"/>
</svg>
