<svg width="16" height="17" viewBox="0 0 16 17" fill="none" xmlns="http://www.w3.org/2000/svg">
<path d="M2.72607 16.0288C2.57471 16.0288 2.44531 15.9751 2.33789 15.8677C2.23047 15.7603 2.17676 15.6309 2.17676 15.4795C2.17676 15.3232 2.23047 15.1914 2.33789 15.084C2.44531 14.9766 2.57471 14.9229 2.72607 14.9229H5.45068V13.2163C4.51807 13.1382 3.7002 12.877 2.99707 12.4326C2.29395 11.9834 1.74463 11.3877 1.34912 10.6455C0.958496 9.90332 0.763184 9.05371 0.763184 8.09668V6.60986C0.763184 6.4585 0.816895 6.3291 0.924316 6.22168C1.03174 6.11426 1.16113 6.06055 1.3125 6.06055C1.46875 6.06055 1.60059 6.11426 1.70801 6.22168C1.81543 6.3291 1.86914 6.4585 1.86914 6.60986V8.05273C1.86914 8.88281 2.0376 9.61035 2.37451 10.2354C2.71631 10.8604 3.19727 11.3462 3.81738 11.6929C4.4375 12.0347 5.16504 12.2056 6 12.2056C6.5127 12.2056 6.97412 12.1421 7.38428 12.0151C7.47705 12.1763 7.57715 12.3301 7.68457 12.4766C7.79199 12.623 7.90918 12.7622 8.03613 12.894C7.80664 12.9771 7.56738 13.0479 7.31836 13.1064C7.07422 13.1602 6.82031 13.1968 6.55664 13.2163V14.9229H9.27393C9.42529 14.9229 9.55469 14.9766 9.66211 15.084C9.76953 15.1914 9.82324 15.3232 9.82324 15.4795C9.82324 15.6309 9.76953 15.7603 9.66211 15.8677C9.55469 15.9751 9.42529 16.0288 9.27393 16.0288H2.72607ZM8.44629 5.9873C8.09473 6.27051 7.78711 6.60254 7.52344 6.9834C7.26465 7.36426 7.06445 7.7793 6.92285 8.22852C6.78125 8.67285 6.71045 9.13916 6.71045 9.62744C6.71045 9.92041 6.7373 10.2134 6.79102 10.5063C6.66895 10.5454 6.54199 10.5771 6.41016 10.6016C6.2832 10.6211 6.14648 10.6309 6 10.6309C5.51172 10.6309 5.08447 10.5186 4.71826 10.2939C4.35205 10.0693 4.06641 9.75928 3.86133 9.36377C3.65625 8.96338 3.55371 8.50195 3.55371 7.97949V3.07959C3.55371 2.55713 3.65625 2.09814 3.86133 1.70264C4.06641 1.30225 4.35205 0.989746 4.71826 0.765137C5.08447 0.540527 5.51172 0.428223 6 0.428223C6.48828 0.428223 6.91553 0.540527 7.28174 0.765137C7.64795 0.989746 7.93359 1.30225 8.13867 1.70264C8.34375 2.09814 8.44629 2.55713 8.44629 3.07959V5.9873ZM11.4419 13.3481C10.9341 13.3481 10.4556 13.2529 10.0063 13.0625C9.55713 12.8672 9.16162 12.5986 8.81982 12.2568C8.47803 11.915 8.20947 11.5195 8.01416 11.0703C7.81885 10.6211 7.72119 10.1401 7.72119 9.62744C7.72119 9.11475 7.81885 8.63623 8.01416 8.19189C8.20947 7.74268 8.47803 7.34717 8.81982 7.00537C9.16162 6.65869 9.55713 6.39014 10.0063 6.19971C10.4556 6.00439 10.9341 5.90674 11.4419 5.90674C11.9546 5.90674 12.4355 6.00439 12.8848 6.19971C13.334 6.39014 13.7295 6.65625 14.0713 6.99805C14.4131 7.33984 14.6792 7.73535 14.8696 8.18457C15.0649 8.63379 15.1626 9.11475 15.1626 9.62744C15.1626 10.1353 15.0649 10.6138 14.8696 11.063C14.6743 11.5122 14.4033 11.9077 14.0566 12.2495C13.7148 12.5913 13.3193 12.8599 12.8701 13.0552C12.4209 13.2505 11.9448 13.3481 11.4419 13.3481ZM11.4346 11.9565C11.5713 11.9565 11.6787 11.915 11.7568 11.832C11.8398 11.749 11.8813 11.6416 11.8813 11.5098V10.0742H13.3169C13.4487 10.0742 13.5562 10.0352 13.6392 9.95703C13.7222 9.87402 13.7637 9.76416 13.7637 9.62744C13.7637 9.49072 13.7222 9.3833 13.6392 9.30518C13.5562 9.22217 13.4487 9.18066 13.3169 9.18066H11.8813V7.74512C11.8813 7.61328 11.8398 7.50586 11.7568 7.42285C11.6787 7.33984 11.5713 7.29834 11.4346 7.29834C11.2979 7.29834 11.188 7.33984 11.105 7.42285C11.0269 7.50586 10.9878 7.61328 10.9878 7.74512V9.18066H9.55225C9.42041 9.18066 9.31299 9.22217 9.22998 9.30518C9.14697 9.3833 9.10547 9.49072 9.10547 9.62744C9.10547 9.76416 9.14697 9.87402 9.22998 9.95703C9.31299 10.0352 9.42041 10.0742 9.55225 10.0742H10.9878V11.5098C10.9878 11.6416 11.0269 11.749 11.105 11.832C11.188 11.915 11.2979 11.9565 11.4346 11.9565Z" fill="#007AFF"/>
</svg>
